<?xml version="1.0" standalone="no"?>
<!DOCTYPE svg PUBLIC "-//W3C//DTD SVG 20010904//EN"
 "http://www.w3.org/TR/2001/REC-SVG-20010904/DTD/svg10.dtd">
<svg version="1.0" xmlns="http://www.w3.org/2000/svg"
 width="600.000000pt" height="600.000000pt" viewBox="0 0 600.000000 600.000000"
 preserveAspectRatio="xMidYMid meet">

<g transform="translate(0.000000,600.000000) scale(0.100000,-0.100000)"
fill="#000000" stroke="none">
<path d="M1870 5506 l-1175 -492 -4 -95 c-1 -52 2 -544 8 -1094 6 -550 13
-1238 16 -1530 2 -291 8 -679 11 -862 l7 -332 -27 -7 c-14 -3 -33 -15 -40 -26
-14 -19 -15 -19 -30 9 -8 15 -20 38 -26 51 -16 37 -32 48 -104 77 -84 34 -139
42 -174 25 -15 -6 -38 -17 -52 -24 -26 -12 -71 -94 -94 -171 -22 -72 14 -125
98 -140 31 -6 36 -11 36 -36 0 -15 5 -31 10 -34 6 -3 10 -1 10 4 0 6 5 11 10
11 13 0 13 -27 1 -35 -5 -3 -16 1 -24 9 -8 8 -18 12 -22 8 -4 -4 -6 8 -3 25 2
18 1 33 -4 33 -4 0 -8 -15 -8 -34 0 -29 4 -36 32 -45 27 -10 34 -8 55 11 20
19 36 22 116 24 l94 2 36 -34 c19 -19 44 -34 54 -34 21 -1 63 -33 63 -50 0 -6
-5 -8 -11 -5 -7 5 -9 -3 -7 -21 2 -20 11 -30 31 -37 25 -8 33 -5 58 19 26 25
33 27 58 17 18 -6 33 -7 39 -1 13 13 92 21 92 9 0 -20 69 -77 95 -79 38 -3 42
-7 49 -55 6 -40 10 -45 43 -55 21 -6 37 -10 37 -9 1 1 12 16 26 32 14 17 19
25 11 18 -11 -9 -17 -8 -29 3 -8 8 -11 18 -8 22 4 3 10 2 14 -3 10 -14 45 -19
132 -19 l75 -1 22 40 23 40 -6 -42 c-5 -38 -2 -45 26 -73 18 -17 42 -35 55
-40 16 -6 24 -19 29 -48 5 -33 11 -42 37 -51 28 -10 33 -8 56 19 24 29 53 40
53 20 0 -6 27 -8 75 -4 l75 5 36 -35 c20 -19 39 -34 43 -33 3 1 21 -4 39 -12
22 -9 32 -20 31 -35 0 -20 -1 -21 -9 -1 -7 16 -9 12 -7 -18 1 -33 5 -39 32
-46 23 -6 36 -3 58 11 15 11 27 23 27 28 0 5 13 5 28 -1 19 -7 38 -6 56 1 47
18 70 12 99 -25 19 -24 42 -39 72 -47 41 -11 44 -14 52 -56 7 -39 12 -47 42
-57 31 -10 35 -9 67 23 27 27 37 32 48 23 9 -8 36 -10 80 -5 52 5 70 12 81 28
8 11 15 16 16 11 6 -78 38 -108 117 -107 32 1 41 -4 61 -34 21 -31 28 -34 55
-28 38 8 33 3 41 39 5 23 4 26 -4 15 -9 -13 -11 -12 -11 5 0 15 -2 17 -9 6 -5
-7 -6 -22 -4 -32 4 -13 0 -19 -12 -19 -12 0 -15 5 -10 18 4 9 8 24 9 32 2 9
15 15 32 16 57 2 101 15 119 34 10 11 22 17 26 14 5 -3 9 -1 9 5 0 15 33 18
60 5 14 -7 43 -11 65 -10 22 1 48 -1 58 -6 9 -5 17 -5 17 0 0 4 9 8 20 9 24 2
25 -3 6 -22 -7 -8 -17 -11 -21 -7 -4 4 -1 -6 6 -21 11 -24 16 -27 43 -21 42 9
43 10 56 49 11 35 18 39 53 36 9 -1 17 4 17 11 0 7 16 23 35 36 l35 22 36 -19
c28 -15 50 -19 89 -15 50 4 53 3 75 -29 19 -28 27 -32 59 -29 34 3 39 8 52 45
10 32 19 42 36 43 13 1 40 13 61 28 21 14 43 26 49 26 6 0 14 12 17 27 17 85
17 102 2 138 -9 21 -15 39 -14 40 5 5 320 75 334 75 10 0 14 -13 14 -48 0 -27
7 -72 16 -101 20 -69 54 -83 167 -68 38 5 47 4 47 -9 0 -8 -4 -12 -10 -9 -5 3
-10 -1 -10 -10 0 -9 5 -13 10 -10 6 3 10 1 10 -4 0 -18 -18 -12 -34 11 -9 12
-18 19 -21 16 -3 -3 3 -16 14 -30 15 -19 26 -23 54 -20 18 2 34 9 34 15 0 7 3
23 6 37 4 14 4 19 1 13 -3 -7 -12 -13 -19 -13 -8 0 -11 -7 -8 -20 3 -11 0 -20
-6 -20 -6 0 -11 16 -11 35 l0 35 54 0 c40 0 62 6 89 24 65 44 73 47 101 32 18
-9 53 -12 107 -10 60 3 79 0 76 -9 -2 -6 -13 -12 -25 -11 -20 0 -21 0 -4 -28
9 -16 22 -26 30 -23 8 3 22 5 32 5 11 0 22 12 29 31 13 39 13 39 1 39 -5 0
-10 -8 -10 -19 0 -10 -6 -24 -14 -30 -12 -10 -13 -8 -9 8 3 12 1 21 -6 21 -6
0 -11 6 -11 14 0 9 13 14 38 15 71 3 81 6 106 36 14 17 26 26 26 21 0 -5 6 -3
14 3 10 8 21 7 44 -4 43 -22 71 -26 109 -16 29 8 34 6 55 -25 20 -30 28 -34
66 -34 24 0 41 4 37 9 -10 17 27 81 47 81 19 0 127 57 129 68 1 4 2 23 3 42 2
19 5 44 9 55 4 13 -1 33 -15 55 -12 19 -23 37 -23 40 -6 26 -32 60 -54 71 -14
8 -34 21 -44 30 -10 10 -28 19 -40 21 -23 4 -148 -6 -182 -15 -11 -3 -25 -6
-31 -6 -18 -1 -114 -91 -114 -107 0 -18 -14 -18 -30 1 -7 8 -17 15 -22 15 -5
0 -18 9 -30 20 -12 11 -33 20 -47 21 -66 2 -137 -4 -153 -12 -17 -9 -18 7 -18
314 l0 325 30 6 c22 4 30 11 30 26 0 24 -23 72 -42 87 -10 8 -12 40 -10 127 3
113 4 116 26 116 42 0 46 15 46 176 0 162 -1 164 -51 164 -18 0 -19 10 -19
200 l0 200 24 0 c51 0 57 18 54 183 l-3 151 -32 10 -33 9 0 198 0 198 33 3 32
3 0 164 0 165 -31 8 -32 8 4 167 c2 93 6 403 8 690 4 475 2 523 -13 536 -9 8
-450 229 -981 492 -531 263 -969 482 -974 486 -6 5 -17 9 -25 8 -9 0 -545
-222 -1191 -493z m1146 -3833 c-2 -2 -359 56 -794 129 -435 73 -789 134 -787
136 2 3 85 -8 184 -23 99 -15 187 -25 196 -22 13 6 15 29 13 178 l-3 172 -42
15 -43 14 0 173 c0 118 -4 176 -11 181 -18 11 -772 41 -791 32 -16 -8 -18 -25
-18 -148 l0 -140 -32 0 c-18 0 -50 3 -71 6 l-37 7 0 178 0 179 28 -12 c30 -12
978 -36 1006 -25 14 6 16 29 16 170 0 178 -1 181 -57 196 l-28 7 -5 169 c-4
135 -8 170 -20 177 -23 14 -791 -57 -801 -74 -5 -7 -9 -73 -9 -145 l0 -133
-70 0 -70 0 0 175 c0 96 3 175 8 175 4 0 23 -4 42 -10 46 -12 970 89 994 109
13 11 16 33 15 110 -1 53 -4 127 -8 165 l-6 69 -42 15 -43 14 0 163 c0 133 -3
164 -15 168 -14 6 -167 -26 -595 -122 l-205 -46 -3 -136 -3 -137 -42 -6 c-23
-4 -57 -9 -75 -12 l-32 -6 0 184 0 185 49 -10 c45 -10 81 -2 527 109 l479 119
0 174 0 174 -42 15 -43 14 0 153 c0 121 -3 155 -15 165 -11 9 -90 -15 -402
-126 -213 -76 -394 -142 -400 -147 -9 -7 -13 -46 -13 -133 l0 -123 -67 -20
c-37 -11 -68 -19 -69 -18 -1 1 -5 113 -9 248 l-8 246 89 37 c49 20 559 234
1134 475 l1045 437 3 -2120 c1 -1165 0 -2121 -2 -2123z m1031 3767 l946 -470
-6 -661 c-4 -364 -8 -664 -10 -666 -2 -2 -27 2 -56 9 l-51 11 0 148 c0 131 -2
149 -17 157 -38 20 -645 203 -661 200 -17 -3 -23 -60 -32 -303 -1 -38 -4 -61
-7 -50 -8 34 -6 33 -200 85 l-43 11 0 167 c0 92 -4 173 -8 179 -10 16 -647
215 -676 211 -21 -3 -21 -7 -24 -210 l-2 -208 -28 0 c-50 0 -52 -10 -52 -209
0 -103 4 -192 8 -199 5 -7 185 -49 418 -97 366 -77 416 -85 477 -79 58 6 67 4
67 -10 0 -9 10 -21 23 -26 35 -15 798 -170 836 -170 l34 0 -6 -187 c-4 -102
-9 -188 -11 -190 -2 -2 -25 0 -51 4 l-47 8 1 151 c2 113 -1 154 -11 161 -7 6
-161 39 -341 72 -256 48 -332 59 -343 50 -11 -9 -14 -49 -14 -192 0 -171 -1
-179 -18 -164 -10 9 -53 20 -107 27 -153 19 -135 -8 -135 205 0 101 -3 186 -7
188 -19 12 -663 127 -677 121 -14 -5 -16 -32 -16 -214 0 -222 0 -220 -50 -220
-10 0 -21 -7 -24 -16 -3 -9 -6 -98 -6 -199 0 -134 3 -185 13 -193 15 -12 735
-72 860 -72 48 0 95 -4 105 -10 18 -10 716 -70 815 -70 l57 0 0 -200 0 -200
-55 0 -55 0 0 165 c0 162 0 166 -22 174 -27 9 -599 45 -643 40 l-30 -4 -3
-187 -2 -188 -54 0 c-29 0 -87 3 -129 6 l-77 7 0 189 c0 186 0 189 -22 198
-25 10 -596 44 -643 39 l-30 -4 -3 -217 -2 -218 -28 0 c-50 0 -52 -10 -52
-211 0 -157 2 -189 16 -200 13 -10 87 -9 417 5 593 26 811 34 1017 40 l185 5
-220 -14 c-121 -7 -310 -18 -420 -24 -330 -17 -927 -50 -977 -54 l-48 -4 0
2123 c0 1168 3 2124 6 2124 3 0 431 -212 951 -470z m-2379 -639 l-3 -65 -157
-47 -158 -46 0 107 0 108 153 54 152 55 8 -51 c4 -28 6 -80 5 -115z m-388 -76
c0 -58 -1 -105 -3 -105 -2 0 -72 -20 -157 -45 -85 -25 -155 -45 -157 -45 -2 0
-3 42 -3 94 l0 94 43 16 c95 36 262 95 270 95 4 1 7 -46 7 -104z m350 -185 c0
-105 -1 -110 -22 -115 -13 -3 -205 -50 -426 -105 -222 -55 -408 -100 -413
-100 -5 0 -9 40 -9 90 l0 89 38 11 c20 6 208 62 417 125 209 62 388 113 398
114 15 1 17 -10 17 -109z m1775 -185 l115 -36 0 -155 c0 -85 -3 -154 -7 -154
-5 0 -48 11 -98 24 -51 13 -104 22 -122 19 l-33 -5 0 177 c0 151 2 176 15 172
8 -4 66 -22 130 -42z m333 -104 l102 -32 0 -144 c0 -80 -2 -145 -5 -145 -3 0
-62 14 -130 31 l-125 31 0 148 c0 80 3 149 6 153 3 3 16 2 28 -2 11 -5 67 -23
124 -40z m-2070 -223 l-3 -123 -125 -22 c-69 -12 -140 -22 -157 -22 l-33 -1 0
113 0 113 138 31 c203 46 183 56 180 -89z m2818 -132 c-4 -66 -9 -122 -11
-124 -2 -3 -43 5 -89 17 -47 11 -101 21 -121 21 l-35 0 0 144 0 144 131 -41
132 -41 -7 -120z m-3196 60 l0 -113 -142 -22 c-79 -12 -151 -24 -160 -27 -16
-5 -18 4 -18 100 l0 106 28 7 c64 16 268 61 280 62 9 1 12 -28 12 -113z m3498
-32 c21 -6 22 -10 22 -126 0 -92 -3 -119 -12 -116 -7 3 -66 18 -130 34 l-118
28 0 127 0 127 108 -34 c59 -19 117 -37 130 -40z m-1052 -41 l344 -86 0 -124
c0 -92 -3 -123 -12 -123 -7 1 -168 33 -358 73 l-345 72 -3 144 c-2 130 -1 143
14 137 9 -3 171 -45 360 -93z m-2096 -166 l0 -112 -387 -43 c-214 -24 -409
-46 -435 -49 l-48 -6 0 92 c0 50 1 91 3 92 10 3 836 137 850 138 15 1 17 -11
17 -112z m3019 -68 c174 -44 333 -85 354 -90 l37 -10 0 -99 c0 -55 -3 -100 -7
-100 -5 -1 -167 32 -360 72 l-353 72 0 118 c0 65 3 118 7 118 3 0 148 -36 322
-81z m-1269 -224 c47 -9 95 -18 108 -21 22 -4 22 -6 22 -170 l0 -167 -47 7
c-27 3 -85 9 -130 12 l-83 7 0 179 0 178 23 -4 c12 -3 60 -12 107 -21z m320
-60 c47 -9 95 -18 108 -21 22 -4 22 -7 22 -159 l0 -155 -26 0 c-22 0 -111 11
-201 26 l-33 5 0 165 0 164 23 -4 c12 -3 60 -12 107 -21z m-2040 -134 c0 -108
-3 -130 -16 -135 -9 -3 -78 -6 -155 -6 l-139 0 0 124 0 123 113 10 c61 5 131
11 155 11 l42 2 0 -129z m-380 -26 l0 -124 -155 -3 -155 -3 0 113 c0 61 3 112
8 113 134 13 271 27 285 28 15 1 17 -11 17 -124z m3060 40 c47 -9 95 -18 108
-21 22 -4 22 -7 22 -144 0 -140 0 -140 -22 -136 -46 10 -194 26 -213 23 -15
-1 -20 4 -19 21 0 12 1 80 2 151 2 117 4 129 20 125 9 -2 55 -10 102 -19z
m320 -60 c47 -9 95 -18 108 -21 21 -4 22 -8 22 -134 l0 -130 -47 7 c-27 3 -84
11 -128 17 l-80 11 1 38 c3 225 4 235 22 231 9 -2 55 -10 102 -19z m-3030
-270 l0 -116 -367 7 c-203 4 -397 9 -433 13 l-65 6 -3 88 -3 87 28 1 c15 0
204 7 418 13 215 7 398 14 408 14 15 2 17 -10 17 -113z m2098 55 c171 -22 319
-40 327 -40 13 0 15 -21 15 -125 l0 -125 -42 1 c-24 0 -185 13 -358 27 l-315
27 -3 143 -3 143 33 -5 c18 -4 174 -24 346 -46z m941 -120 c174 -23 326 -43
339 -46 21 -4 22 -9 22 -104 l0 -100 -42 1 c-24 0 -185 13 -358 27 l-315 27
-3 118 c-3 114 -2 117 19 117 12 0 164 -18 338 -40z m-3391 -266 c9 -2 12 -37
12 -129 l0 -125 -31 0 c-31 0 -199 17 -256 26 l-33 5 0 119 0 120 148 -6 c81
-3 153 -7 160 -10z m300 -10 l92 -7 0 -138 0 -139 -25 0 c-29 0 -216 18 -262
26 l-33 5 0 129 0 130 68 0 c38 0 110 -3 160 -6z m1878 -90 l51 -5 -5 -172
c-2 -95 -5 -173 -6 -174 0 -1 -56 -3 -124 -5 l-122 -3 0 187 0 188 78 -6 c42
-2 100 -7 128 -10z m322 -20 l52 -5 0 -142 c0 -204 12 -187 -136 -187 l-124 0
0 175 0 175 78 -6 c42 -2 101 -7 130 -10z m641 -40 l54 -6 -7 -51 c-3 -29 -6
-96 -6 -150 l0 -97 -125 1 -125 1 0 159 0 159 78 -6 c42 -2 101 -7 131 -10z
m320 -20 l54 -6 -7 -105 c-3 -59 -6 -121 -6 -140 l0 -33 -125 0 -125 0 0 150
0 150 78 -6 c42 -2 101 -7 131 -10z m-3531 -138 c227 -24 414 -45 416 -47 2
-2 7 -52 10 -111 7 -105 7 -108 -14 -108 -21 0 -787 116 -827 125 -22 5 -23
10 -23 95 0 66 3 90 13 90 6 0 198 -20 425 -44z m-373 -228 c7 -8 4 -9 -8 -4
-10 3 -27 6 -38 6 -10 0 -19 5 -19 11 0 13 50 3 65 -13z m3235 -98 c0 -116 -1
-121 -22 -129 -20 -8 -507 -31 -645 -31 l-53 0 0 140 0 140 360 0 360 0 0
-120z m723 110 l227 0 0 -100 0 -99 -32 -5 c-33 -5 -557 -26 -635 -26 l-43 0
0 121 0 122 128 -6 c70 -4 229 -7 355 -7z m-3706 -56 c-3 -3 -12 -4 -19 -1 -8
3 -5 6 6 6 11 1 17 -2 13 -5z m60 -10 c-3 -3 -12 -4 -19 -1 -8 3 -5 6 6 6 11
1 17 -2 13 -5z m66 -11 c-7 -2 -19 -2 -25 0 -7 3 -2 5 12 5 14 0 19 -2 13 -5z
m662 -183 c594 -99 1092 -183 1108 -186 l27 -6 -2 -571 -3 -571 -34 -3 c-48
-4 -112 -22 -139 -40 -26 -16 -35 -10 -66 47 -21 38 -45 55 -120 85 -99 39
-142 41 -210 11 -64 -28 -56 -32 -115 50 -25 35 -43 47 -111 73 -93 35 -118
37 -183 15 -59 -20 -103 -7 -132 38 -35 56 -201 110 -264 87 -39 -15 -181 43
-181 74 0 12 -40 47 -54 47 -6 0 -24 7 -41 16 -50 26 -136 41 -179 32 -49 -11
-132 14 -162 48 -20 23 -122 74 -147 74 -7 0 -29 5 -49 11 l-38 10 0 419 c0
231 3 420 7 420 4 0 493 -81 1088 -180z m-602 173 c-7 -2 -19 -2 -25 0 -7 3
-2 5 12 5 14 0 19 -2 13 -5z m70 -10 c-7 -2 -21 -2 -30 0 -10 3 -4 5 12 5 17
0 24 -2 18 -5z m60 -10 c-7 -2 -21 -2 -30 0 -10 3 -4 5 12 5 17 0 24 -2 18 -5z
m3480 -180 c-24 -2 -62 -2 -85 0 -24 2 -5 4 42 4 47 0 66 -2 43 -4z m67 -119
c0 -49 -2 -55 -17 -49 -31 11 -155 44 -236 61 -42 9 -76 19 -73 21 3 3 190 17
294 22 l32 1 0 -56z m-1571 -71 c-109 -54 -181 -120 -200 -181 -9 -32 -9 -45
0 -56 7 -8 64 -26 128 -41 112 -26 121 -27 234 -16 64 6 129 11 143 11 l26 0
0 -358 0 -358 -45 -44 c-25 -24 -45 -51 -45 -60 0 -9 -3 -11 -8 -4 -4 6 -23
19 -42 30 -19 10 -38 23 -42 29 -11 16 -122 13 -193 -5 -52 -13 -73 -25 -103
-56 -21 -21 -41 -47 -45 -56 -6 -16 -9 -16 -44 4 -21 12 -44 28 -50 34 -10 10
-13 140 -13 583 l0 571 68 1 c57 1 247 12 306 17 10 1 -24 -19 -75 -45z m1565
-495 c-4 -183 -8 -334 -9 -336 -2 -2 -36 -12 -76 -22 -53 -14 -78 -16 -92 -9
-51 28 -234 -12 -275 -60 -15 -18 -116 -51 -156 -51 -14 0 -16 37 -16 375 0
293 3 375 13 376 6 0 140 13 297 28 157 16 293 29 302 30 17 1 18 -19 12 -331z
m-696 -110 l-3 -382 -94 -22 -93 -22 -62 33 c-59 32 -64 32 -139 26 -43 -4
-79 -4 -80 -1 -1 3 0 163 3 355 l5 350 225 21 c124 12 228 22 233 23 4 0 6
-171 5 -381z m-3886 -103 c25 -2 34 -13 20 -27 -9 -9 -16 -7 -30 5 -10 9 -22
14 -25 10 -4 -3 -7 1 -7 11 0 11 4 14 12 10 7 -5 21 -9 30 -9z m1172 -119 c-3
-11 -12 -28 -20 -36 -12 -12 -14 -9 -14 27 0 36 2 41 20 36 16 -4 19 -11 14
-27z m-778 -41 c-1 -22 -6 -35 -15 -35 -9 0 -11 7 -7 23 3 12 6 28 6 35 0 6 4
12 8 12 5 0 8 -16 8 -35z m55 15 c5 0 9 -5 9 -11 0 -5 -4 -8 -9 -5 -5 3 -11
-3 -14 -14 -3 -11 -10 -20 -16 -20 -9 0 -9 5 -1 21 7 11 9 23 6 27 -3 3 -6 0
-6 -7 0 -7 -5 -9 -10 -6 -15 9 0 27 17 21 8 -3 19 -6 24 -6z m388 -126 c2 -2
0 -11 -4 -21 -7 -17 -8 -17 -15 2 -8 18 -9 17 -9 -7 -1 -16 -6 -28 -12 -28 -7
0 -10 12 -7 30 2 16 0 32 -6 34 -6 3 3 3 19 -1 17 -3 32 -7 34 -9z m11 -55 c0
-5 -4 -8 -9 -5 -5 4 -12 0 -14 -6 -3 -8 -6 -6 -6 5 -1 9 6 17 14 17 8 0 15 -5
15 -11z m4423 -79 c-3 -12 -8 -19 -11 -16 -5 6 5 36 12 36 2 0 2 -9 -1 -20z
m-3994 -6 c1 -1 0 -8 -4 -14 -6 -9 -10 -9 -16 1 -6 10 -9 8 -9 -8 0 -27 25
-21 41 8 9 17 12 18 25 4 15 -15 11 -35 -7 -35 -6 0 -7 5 -3 12 4 7 3 8 -4 4
-7 -4 -12 -14 -12 -22 0 -8 -4 -14 -10 -14 -5 0 -10 5 -10 11 0 5 -4 8 -9 5
-13 -9 -30 17 -28 42 1 17 6 21 22 16 11 -4 22 -8 24 -10z m3901 6 c0 20 10 6
20 -29 10 -37 0 -33 -32 12 -15 21 -17 27 -5 18 13 -11 17 -11 17 -1z m40 -11
c0 -6 -4 -7 -10 -4 -5 3 -10 11 -10 16 0 6 5 7 10 4 6 -3 10 -11 10 -16z m30
11 c0 -5 -5 -10 -11 -10 -5 0 -7 5 -4 10 3 6 8 10 11 10 2 0 4 -4 4 -10z m-23
-52 c-3 -8 -6 -5 -6 6 -1 11 2 17 5 13 3 -3 4 -12 1 -19z m-455 -60 c-15 -15
-26 -4 -18 18 5 13 9 15 18 6 9 -9 9 -15 0 -24z m-3077 -60 c-6 -34 -12 -44
-20 -36 -8 8 6 68 16 68 5 0 7 -14 4 -32z m51 12 c18 0 18 -9 -3 -32 -17 -19
-43 -24 -43 -9 0 21 23 65 27 54 3 -7 11 -13 19 -13z m1835 -113 c-8 -8 -11
-7 -11 4 0 20 13 34 18 19 3 -7 -1 -17 -7 -23z m-47 8 c7 -18 -10 -20 -18 -2
-3 6 -3 -4 0 -23 6 -31 5 -33 -10 -21 -9 7 -16 20 -16 27 0 8 -6 14 -12 15
-14 0 21 17 38 18 7 1 14 -6 18 -14z m-1414 -30 c0 -5 5 -3 10 5 8 13 10 12
10 -2 0 -10 -7 -18 -15 -18 -8 0 -15 -7 -15 -16 0 -8 -5 -12 -11 -8 -6 3 -9
17 -6 30 2 13 0 24 -4 24 -5 0 -9 5 -9 10 0 6 8 5 20 -2 11 -7 20 -17 20 -23z
m1434 -10 c-6 -16 -24 -21 -24 -7 0 11 11 22 21 22 5 0 6 -7 3 -15z m-1373 -4
c4 7 11 10 15 6 11 -10 -12 -31 -25 -23 -6 4 -11 13 -10 19 0 8 3 7 6 -2 4
-11 7 -11 14 0z m919 -17 c0 -8 -4 -12 -10 -9 -5 3 -10 10 -10 16 0 5 5 9 10
9 6 0 10 -7 10 -16z m32 9 c-6 -2 -10 -9 -7 -14 4 -5 1 -17 -4 -26 -9 -15 -10
-13 -11 15 0 24 4 32 18 31 10 0 12 -3 4 -6z m-982 -23 c0 -5 -7 -10 -15 -10
-8 0 -15 5 -15 10 0 6 7 10 15 10 8 0 15 -4 15 -10z m930 -27 c0 -20 -3 -24
-11 -16 -7 7 -9 19 -6 27 10 24 17 19 17 -11z m17 -5 c-3 -8 -6 -5 -6 6 -1 11
2 17 5 13 3 -3 4 -12 1 -19z m-462 -17 c3 -5 1 -12 -4 -15 -5 -4 -12 0 -15 6
-3 7 -3 0 0 -17 l5 -30 -20 24 c-12 12 -18 27 -15 32 7 12 41 12 49 0z"/>
<path d="M2455 5321 c-209 -75 -386 -140 -392 -144 -10 -6 -13 -51 -13 -167
l0 -159 -87 -26 c-49 -14 -95 -29 -103 -34 -12 -7 -16 -39 -18 -176 -1 -101 1
-172 8 -179 5 -7 42 -20 82 -30 l73 -18 450 112 c248 61 465 115 483 121 l32
11 -2 201 -3 200 -42 15 -43 14 0 187 c0 185 -5 213 -34 210 -6 -1 -182 -63
-391 -138z m363 -93 l-3 -153 -155 -45 -155 -46 -3 139 c-1 77 -1 141 1 143 4
5 299 112 310 113 4 1 6 -68 5 -151z m-388 -127 c0 -124 -2 -140 -17 -145 -10
-3 -74 -21 -142 -42 -69 -20 -131 -38 -138 -41 -11 -4 -13 19 -11 128 l3 133
145 52 c80 29 148 53 153 53 4 1 7 -62 7 -138z m350 -249 l0 -138 -422 -104
c-233 -57 -429 -105 -435 -108 -10 -3 -13 24 -13 117 l0 120 38 11 c20 5 210
61 422 124 212 63 391 115 398 115 9 1 12 -33 12 -137z"/>
<path d="M2441 4394 c-206 -46 -378 -89 -383 -96 -4 -7 -8 -85 -8 -173 l0
-161 -85 -12 c-47 -7 -92 -15 -100 -18 -13 -5 -15 -35 -15 -185 l0 -178 71
-21 71 -21 476 52 c263 29 483 57 490 62 9 7 12 56 10 206 l-3 196 -42 15 -43
14 -2 201 -3 200 -30 2 c-16 1 -198 -36 -404 -83z m379 -143 c0 -156 0 -159
-22 -164 -28 -7 -274 -47 -288 -47 -6 0 -10 59 -10 150 0 147 0 150 23 155
124 29 274 63 285 64 9 1 12 -37 12 -158z m-392 -78 l-3 -148 -135 -22 c-74
-12 -143 -22 -152 -23 -16 0 -18 13 -18 138 l0 139 133 30 c72 17 142 31 155
32 l23 1 -3 -147z m352 -303 c0 -77 -4 -140 -9 -140 -4 0 -190 -20 -411 -45
-221 -25 -413 -45 -426 -45 -24 0 -24 1 -24 118 l0 117 408 66 c224 37 419 67
435 68 l27 1 0 -140z"/>
<path d="M2420 3496 c-184 -17 -341 -35 -347 -39 -10 -6 -13 -53 -13 -177 l0
-169 -32 -6 c-18 -3 -64 -6 -103 -8 l-70 -2 -3 -177 c-3 -202 -11 -184 98
-211 52 -13 159 -18 530 -26 320 -6 469 -6 478 1 9 8 12 58 10 207 l-3 196
-42 13 -43 14 -2 206 -3 207 -60 1 c-33 1 -211 -12 -395 -30z m400 -200 l0
-163 -52 -7 c-29 -3 -101 -6 -160 -6 l-108 0 0 160 0 160 28 1 c15 0 83 6 152
13 69 7 128 10 133 8 4 -2 7 -77 7 -166z m-380 -20 c0 -182 18 -166 -182 -166
l-138 0 0 145 c0 80 1 145 3 146 6 3 246 26 280 28 l37 1 0 -154z m340 -356
l0 -140 -122 0 c-68 0 -261 3 -430 7 l-308 6 0 119 c0 65 1 119 3 119 2 1 620
22 800 27 l57 2 0 -140z"/>
<path d="M2073 2609 c-10 -10 -13 -61 -13 -187 l0 -174 -96 7 c-77 6 -98 5
-105 -6 -15 -24 -11 -335 4 -347 7 -6 33 -14 57 -18 25 -4 51 -11 58 -17 7 -6
227 -43 489 -84 361 -55 479 -70 490 -62 11 9 13 52 11 207 l-3 195 -42 15
-43 14 0 209 c0 208 0 210 -22 218 -13 4 -171 13 -353 20 -181 6 -350 14 -375
17 -29 3 -49 1 -57 -7z m314 -69 l53 0 0 -165 0 -165 -27 0 c-28 0 -172 15
-250 25 l-43 6 0 156 0 156 107 -6 c58 -4 130 -7 160 -7z m366 -17 l67 -6 0
-173 c0 -168 -1 -174 -20 -174 -22 0 -188 17 -257 26 l-43 5 0 165 0 164 93 0
c50 0 122 -3 160 -7z m-425 -373 c213 -22 402 -42 420 -45 l32 -6 0 -140 0
-140 -32 6 c-59 10 -811 125 -820 125 -4 0 -8 54 -8 120 0 78 4 120 11 120 5
0 184 -18 397 -40z"/>
<path d="M3166 5551 c-8 -12 33 -410 44 -438 10 -24 159 -99 170 -86 4 5 4 37
0 73 -4 36 -6 66 -5 68 1 1 9 0 18 -3 18 -7 27 -36 27 -87 0 -69 14 -86 97
-124 42 -19 79 -31 83 -27 8 9 -33 418 -44 444 -8 18 -155 91 -167 83 -4 -2
-5 -36 -2 -74 3 -39 3 -70 0 -70 -19 0 -37 36 -37 74 0 82 -14 103 -97 141
-86 40 -80 38 -87 26z m94 -72 l48 -21 7 -61 c9 -89 12 -95 55 -117 61 -31 64
-29 57 50 -3 39 -4 70 -2 70 3 0 26 -10 52 -22 27 -13 49 -23 50 -24 2 0 43
-364 43 -380 0 -2 -25 8 -55 23 l-54 27 -6 55 c-10 93 -13 100 -55 121 -61 31
-63 29 -58 -50 3 -38 3 -70 1 -70 -2 0 -26 9 -53 21 -43 18 -49 25 -54 57 -5
30 -36 325 -36 338 0 7 11 4 60 -17z"/>
<path d="M3660 5297 c-52 -26 -72 -108 -49 -206 27 -120 143 -268 227 -291 73
-19 130 27 139 114 3 25 7 46 9 46 2 0 14 -5 27 -11 22 -10 25 -20 35 -121 7
-61 16 -116 21 -122 20 -24 151 -80 161 -70 7 7 7 41 -1 108 -6 53 -9 99 -6
102 3 3 15 0 27 -6 15 -8 25 -8 34 -1 10 8 15 -17 24 -115 7 -69 15 -131 18
-136 8 -13 271 -138 290 -138 8 0 15 10 15 23 1 17 3 15 8 -8 5 -27 19 -37
135 -93 71 -35 139 -64 150 -65 19 -2 21 2 18 53 -5 73 -12 84 -77 114 -62 28
-59 21 -75 186 -16 167 -11 156 -93 196 -40 19 -80 33 -90 30 -9 -2 -23 4 -30
14 -12 17 -265 140 -287 140 -6 0 -11 -15 -11 -32 l-1 -33 -8 38 c-4 20 -9 40
-12 43 -16 15 -302 143 -310 138 -5 -3 -7 -31 -3 -62 6 -55 5 -56 -8 -27 -20
42 -87 130 -119 155 -32 25 -90 50 -115 50 -10 0 -29 -6 -43 -13z m146 -72
c77 -59 134 -174 134 -270 0 -43 -5 -59 -26 -84 -30 -36 -52 -38 -111 -12 -86
39 -163 177 -163 292 0 51 4 64 26 86 21 21 32 25 65 20 22 -3 56 -17 75 -32z
m296 -136 c62 -28 118 -57 124 -63 7 -6 15 -40 18 -74 7 -63 7 -64 -16 -57
-13 4 -27 8 -33 9 -12 1 -12 -40 -1 -146 l8 -78 -54 25 -53 24 -12 98 c-17
137 -19 141 -58 160 -24 12 -35 23 -35 38 0 12 -3 43 -6 69 -4 25 -4 46 -1 46
3 0 57 -23 119 -51z m330 -153 c97 -46 117 -59 122 -82 4 -14 5 -28 2 -31 -2
-2 -27 7 -55 22 -60 30 -75 26 -65 -18 8 -39 27 -61 64 -77 20 -8 29 -20 32
-41 5 -34 6 -34 -33 -14 -36 19 -49 13 -49 -24 0 -36 24 -60 88 -90 45 -21 52
-28 52 -52 l0 -28 -77 35 c-43 20 -97 44 -120 55 -32 14 -43 24 -43 41 -1 13
-9 98 -19 191 -9 92 -17 167 -16 167 1 0 54 -24 117 -54z m-145 -43 c-3 -10
-5 -2 -5 17 0 19 2 27 5 18 2 -10 2 -26 0 -35z m310 -85 c-2 -13 -4 -3 -4 22
0 25 2 35 4 23 2 -13 2 -33 0 -45z m96 7 c54 -23 51 -15 68 -196 7 -69 17
-133 24 -142 6 -8 37 -27 68 -41 51 -22 57 -28 57 -55 l0 -30 -117 55 c-64 30
-118 56 -119 57 -1 1 -9 74 -18 162 -9 88 -19 173 -21 188 -3 16 -1 27 3 25 4
-2 29 -12 55 -23z m-162 -25 c22 -12 48 -18 58 -15 15 5 18 -9 30 -126 7 -72
10 -133 7 -136 -3 -4 -6 7 -6 23 0 36 -15 56 -55 78 -20 10 -24 15 -12 16 14
0 17 8 16 43 -2 68 -12 90 -54 114 -50 28 -38 30 16 3z"/>
<path d="M3747 5123 c-12 -11 -8 -53 8 -83 34 -65 92 -59 81 8 -8 55 -64 101
-89 75z m53 -64 c0 -10 -4 -19 -9 -19 -12 0 -23 29 -15 41 8 14 24 0 24 -22z"/>
<path d="M964 1649 c-12 -21 -4 -443 9 -456 7 -6 123 -46 259 -88 203 -63 251
-75 263 -65 13 10 15 50 15 244 0 127 -4 237 -9 245 -7 12 -478 130 -518 131
-6 0 -15 -5 -19 -11z m274 -115 l202 -47 0 -189 c0 -103 -1 -188 -2 -188 -2 0
-93 29 -203 63 -178 57 -200 66 -206 88 -10 33 -11 319 -1 319 4 0 98 -21 210
-46z"/>
<path d="M1636 1484 c-3 -9 -6 -123 -6 -254 0 -178 3 -240 13 -248 22 -18 503
-163 520 -156 15 5 17 34 17 274 0 202 -3 270 -12 278 -14 10 -477 122 -508
122 -10 0 -21 -7 -24 -16z m277 -108 c104 -25 190 -46 192 -48 2 -2 6 -99 10
-216 l8 -213 -24 6 c-13 3 -107 32 -209 64 l-185 58 -3 197 c-2 153 0 196 10
196 7 0 98 -20 201 -44z"/>
<path d="M2312 1328 c-17 -17 -17 -528 1 -550 10 -14 484 -168 515 -168 27 0
32 46 32 312 0 204 -3 278 -12 290 -9 11 -94 36 -251 72 -256 60 -267 62 -285
44z m268 -108 c96 -23 183 -43 193 -46 16 -5 17 -25 17 -245 0 -131 -1 -239
-3 -239 -1 0 -95 29 -207 64 l-205 64 -3 227 c-2 213 -1 226 15 221 10 -3 97
-24 193 -46z"/>
<path d="M3445 1223 c-110 -14 -206 -29 -212 -35 -10 -8 -13 -81 -13 -304 0
-269 1 -294 18 -302 11 -6 89 5 229 33 117 23 215 43 217 46 2 2 6 131 8 287
3 243 1 284 -12 292 -8 5 -19 9 -25 9 -5 -1 -100 -12 -210 -26z m183 -280 l-3
-228 -130 -26 c-71 -14 -147 -29 -167 -33 l-38 -7 0 244 0 244 123 15 c67 9
143 16 170 17 l47 1 -2 -227z"/>
<path d="M4562 1355 c-100 -12 -189 -28 -197 -35 -22 -18 -22 -501 -1 -519 20
-17 435 63 454 87 17 22 17 463 0 480 -15 15 -36 14 -256 -13z m198 -235 l0
-189 -37 -7 c-21 -3 -91 -17 -157 -30 -65 -13 -125 -24 -132 -24 -20 0 -21
400 -1 401 6 0 75 8 152 18 77 11 148 19 158 20 16 1 17 -14 17 -189z"/>
<path d="M2085 279 c-4 -6 -5 -12 -2 -15 2 -3 7 2 10 11 7 17 1 20 -8 4z"/>
</g>
</svg>
